<svg width="350" height="155" viewBox="0 0 350 155" fill="none" xmlns="http://www.w3.org/2000/svg">
<ellipse cx="100.5" cy="103" rx="100.5" ry="52" fill="#CBCBCB" class="cloud_outline"/>
<ellipse cx="100.5" cy="103" rx="100.5" ry="52" fill="#CBCBCB" class="cloud_outline"/>
<ellipse cx="100.5" cy="103" rx="100.5" ry="52" fill="#CBCBCB" class="cloud_outline"/>
<ellipse cx="100.5" cy="103" rx="100.5" ry="52" fill="#CBCBCB" class="cloud_outline"/>
<ellipse cx="262.5" cy="87" rx="87.5" ry="55" fill="#CBCBCB" class="cloud_outline"/>
<ellipse cx="262.5" cy="87" rx="87.5" ry="55" fill="#CBCBCB" class="cloud_outline"/>
<ellipse cx="262.5" cy="87" rx="87.5" ry="55" fill="#CBCBCB" class="cloud_outline"/>
<ellipse cx="262.5" cy="87" rx="87.5" ry="55" fill="#CBCBCB" class="cloud_outline"/>
<ellipse cx="103" cy="96" rx="98" ry="50" fill="white" class="cloud"/>
<ellipse cx="150" cy="59.5" rx="100" ry="56.5" fill="#CBCBCB" class="cloud_outline"/>
<ellipse cx="150" cy="59.5" rx="100" ry="56.5" fill="#CBCBCB" class="cloud_outline"/>
<ellipse cx="150" cy="59.5" rx="100" ry="56.5" fill="#CBCBCB" class="cloud_outline"/>
<ellipse cx="150" cy="59.5" rx="100" ry="56.5" fill="#CBCBCB" class="cloud_outline"/>
<ellipse cx="256.5" cy="77" rx="81.5" ry="50" fill="white" class="cloud"/>
<ellipse cx="159.5" cy="55" rx="103.5" ry="55" fill="white" class="cloud"/>
</svg>
