<svg width="100" height="100" viewBox="0 0 100 100" fill="none" xmlns="http://www.w3.org/2000/svg">
<path d="M72.9678 5.603C73.5097 5.87377 74.0307 6.16538 74.5726 6.45698C74.0515 6.16538 73.5097 5.87377 72.9678 5.603Z" fill="#7988A2"/>
<path d="M23.2388 92.1683C22.6761 91.8142 22.0925 91.4601 21.5506 91.0643C22.0925 91.4601 22.6761 91.8142 23.2388 92.1683Z" fill="#7988A2"/>
<path d="M26.9695 94.3345C26.4068 94.0429 25.8649 93.7305 25.3021 93.418C25.8649 93.7305 26.4068 94.0429 26.9695 94.3345Z" fill="#7988A2"/>
<path d="M68.9453 3.72839C69.5289 3.95751 70.0916 4.22829 70.6543 4.49906C70.0916 4.22829 69.5289 3.95751 68.9453 3.72839Z" fill="#7988A2"/>
<path d="M36.0357 97.9587C35.6606 97.8546 35.2646 97.7504 34.9103 97.6463C35.2854 97.7713 35.6606 97.8546 36.0357 97.9587Z" fill="#7988A2"/>
<path d="M45.3938 99.75C44.9145 99.7084 44.4559 99.6459 43.9766 99.5834C44.4351 99.6251 44.9145 99.7084 45.3938 99.75Z" fill="#7988A2"/>
<path d="M40.8086 99.1043C40.3084 99.0002 39.7874 98.9169 39.2872 98.8127C39.7874 98.8961 40.2876 99.0002 40.8086 99.1043Z" fill="#7988A2"/>
<path d="M77.0737 7.97752C77.4489 8.22747 77.8449 8.45659 78.22 8.70654C77.8449 8.45659 77.4697 8.22747 77.0737 7.97752Z" fill="#7988A2"/>
<path d="M30.8879 96.1883C30.4085 96.0008 29.95 95.7717 29.4915 95.5634C29.9708 95.7509 30.4293 95.98 30.8879 96.1883Z" fill="#7988A2"/>
<path d="M97.7698 35.0552C97.8323 35.2218 97.8531 35.3885 97.9157 35.5551C97.8531 35.3885 97.8115 35.2218 97.7698 35.0552Z" fill="#7988A2"/>
<path d="M81.5756 11.2268C81.909 11.4976 82.2217 11.7892 82.5551 12.06C82.2217 11.7892 81.909 11.4976 81.5756 11.2268Z" fill="#7988A2"/>
<path d="M99.6455 44.0117C99.708 44.4699 99.7706 44.9073 99.8122 45.3655C99.7706 44.9073 99.708 44.4699 99.6455 44.0117Z" fill="#7988A2"/>
<path d="M77.9907 91.4393C81.9924 88.7523 85.5564 85.4822 88.6201 81.7954C85.5772 85.503 81.9924 88.7523 77.9907 91.4393Z" fill="#7988A2"/>
<path d="M79.1579 75.401C78.1991 75.7134 77.2612 75.7342 76.4276 75.401C73.1762 74.1096 72.5093 68.0691 74.9478 61.9246C77.4071 55.78 81.9924 51.8434 85.2854 53.1556C86.8277 53.7805 87.7656 55.4676 88.0991 57.6963C88.8702 54.8427 89.433 51.9267 89.7039 48.8856C89.6831 48.8856 89.6622 48.8856 89.6622 48.8856C89.5997 48.8856 89.5163 48.8856 89.4538 48.8648C88.766 48.7398 88.3075 48.115 88.4326 47.4276C88.766 45.4489 88.7869 43.4493 88.4742 41.5122C88.37 40.8248 88.8285 40.1791 89.5163 40.075C89.5789 40.075 89.6622 40.0958 89.7247 40.0958C89.6414 39.1168 89.5372 38.1587 89.3913 37.2006C89.3496 37.2006 89.3288 37.2214 89.2871 37.2214C88.7243 37.2214 88.2033 36.8257 88.0782 36.2424C86.0566 27.3485 80.1583 19.246 72.3009 14.5595C71.7173 14.2054 71.5089 13.4347 71.8632 12.8515C72.2175 12.2683 72.9886 12.06 73.5722 12.4141C78.4701 15.3301 82.6385 19.5168 85.7231 24.3491C82.0341 15.9758 76.1358 8.81066 68.7577 3.60342C62.9428 1.31223 56.6485 0 50.0208 0C22.3843 0 0 22.3912 0 49.9896C0 66.9444 8.46184 81.9204 21.3839 90.9394C27.0946 93.2306 33.3472 94.4803 39.8916 94.4803C55.8357 94.4803 70.0082 87.0027 79.1579 75.401ZM77.5947 35.3468C78.3242 35.3468 78.8869 35.9508 78.8869 36.6382C78.8869 37.3672 78.3033 37.9296 77.5947 37.9296C76.8861 37.9296 76.3025 37.3464 76.3025 36.6382C76.2817 35.9508 76.8652 35.3468 77.5947 35.3468ZM51.5214 79.9417C50.6877 79.9417 50.0208 79.2751 50.0208 78.4212C50.0208 77.588 50.6877 76.9215 51.5214 76.9215C52.3759 76.9215 53.0429 77.588 53.0429 78.4212C53.0429 79.2543 52.3759 79.9417 51.5214 79.9417ZM54.8978 84.5657C54.3976 84.5657 53.9807 84.17 53.9807 83.6701C53.9807 83.1493 54.3976 82.7536 54.8978 82.7536C55.398 82.7536 55.794 83.1493 55.794 83.6701C55.794 84.1491 55.398 84.5657 54.8978 84.5657ZM65.7982 17.4547C68.6535 17.4547 70.967 19.7459 70.967 22.5995C70.967 25.453 68.6327 27.7442 65.7982 27.7442C62.9428 27.7442 60.6502 25.453 60.6502 22.5995C60.6502 19.7459 62.9636 17.4547 65.7982 17.4547ZM60.2125 79.1085C60.2125 80.3166 59.2329 81.3164 58.0033 81.3164C56.7944 81.3164 55.794 80.3166 55.794 79.1085C55.794 77.8796 56.7944 76.9006 58.0033 76.9006C59.2329 76.9006 60.2125 77.8796 60.2125 79.1085ZM51.8965 8.08165C53.5639 8.08165 54.9186 9.43553 54.9186 11.081C54.9186 12.7473 53.5639 14.1012 51.8965 14.1012C50.2292 14.1012 48.8745 12.7473 48.8745 11.081C48.8745 9.4147 50.2292 8.08165 51.8965 8.08165ZM50.0208 17.4547C51.042 17.4547 51.8965 18.2879 51.8965 19.3293C51.8965 20.3499 51.042 21.2039 50.0208 21.2039C48.9995 21.2039 48.145 20.3499 48.145 19.3293C48.145 18.267 48.9995 17.4547 50.0208 17.4547ZM45.7898 12.2266C46.4568 12.2266 46.9987 12.7682 46.9987 13.4347C46.9987 14.1012 46.4776 14.6428 45.7898 14.6428C45.1437 14.6428 44.581 14.1221 44.581 13.4347C44.6019 12.7682 45.1437 12.2266 45.7898 12.2266ZM51.6464 42.9702C55.5231 42.9702 58.6702 46.1154 58.6702 49.9896C58.6702 53.8846 55.5231 57.0298 51.6464 57.0298C47.749 57.0298 44.6018 53.8846 44.6018 49.9896C44.6018 46.1154 47.749 42.9702 51.6464 42.9702ZM10.6086 67.2776C10.421 67.3818 10.2334 67.4235 10.0458 67.4235C9.58731 67.4235 9.14963 67.1735 8.94121 66.7361C4.08503 57.2589 3.3764 45.6572 7.04459 35.6592C7.29469 35.0135 8.00332 34.6803 8.64942 34.9094C9.29553 35.1385 9.629 35.8675 9.39974 36.5132C5.96081 45.8654 6.60691 56.7173 11.1713 65.5697C11.4631 66.2154 11.213 66.9652 10.6086 67.2776ZM20.2376 79.7959C20.0083 80.1916 19.5915 80.4207 19.1538 80.4207C18.9454 80.4207 18.7161 80.3582 18.5285 80.2541C15.8816 78.6919 13.7349 76.3174 12.4635 73.5055C12.1717 72.8806 12.4635 72.1308 13.0888 71.86C13.714 71.5684 14.4643 71.86 14.7353 72.4849C15.7774 74.7969 17.5698 76.7965 19.779 78.0879C20.3835 78.4212 20.5919 79.1918 20.2376 79.7959ZM22.0925 52.2599C21.4672 52.2599 20.967 51.76 20.967 51.1352C20.967 50.5103 21.4672 49.9896 22.0925 49.9896C22.7178 49.9896 23.218 50.5103 23.218 51.1352C23.218 51.76 22.7178 52.2599 22.0925 52.2599ZM29.283 76.0675C26.6152 76.0675 24.4268 73.9221 24.4268 71.2352C24.4268 68.5482 26.5944 66.382 29.283 66.382C31.9716 66.382 34.1392 68.5482 34.1392 71.2352C34.1392 73.9221 31.9716 76.0675 29.283 76.0675ZM25.6565 54.197C26.3026 54.197 26.8653 54.7386 26.8653 55.4259C26.8653 56.0925 26.3234 56.634 25.6565 56.634C24.9895 56.634 24.4268 56.1133 24.4268 55.4259C24.4476 54.7386 24.9895 54.197 25.6565 54.197ZM24.4477 48.9065C24.4477 47.5734 25.5314 46.4903 26.8653 46.4903C28.1992 46.4903 29.283 47.5942 29.283 48.9065C29.283 50.2604 28.1784 51.3226 26.8653 51.3226C25.5106 51.3435 24.4477 50.2604 24.4477 48.9065ZM34.7853 33.4097C32.451 37.4505 28.1158 39.3043 25.0521 37.5338C22.03 35.7842 21.4464 31.1185 23.7807 27.0569C26.115 23.0369 30.4501 21.1831 33.5139 22.9327C36.536 24.7032 37.1196 29.3897 34.7853 33.4097Z" fill="#7988A2"/>
<path d="M98.8953 39.3668C98.9995 39.825 99.0828 40.2624 99.1662 40.7207C99.062 40.2833 98.9786 39.825 98.8953 39.3668Z" fill="#7988A2"/>
<path d="M88.0782 17.5797C88.3284 17.8713 88.5785 18.142 88.8077 18.4337C88.5576 18.142 88.3075 17.8713 88.0782 17.5797Z" fill="#7988A2"/>
<path d="M84.8477 14.1429C85.202 14.4761 85.5355 14.8302 85.8898 15.1843C85.5563 14.8302 85.202 14.497 84.8477 14.1429Z" fill="#7988A2"/>
<path d="M91.3921 21.8913C91.5588 22.1204 91.6839 22.3703 91.8506 22.5995C91.7047 22.3703 91.5588 22.1412 91.3921 21.8913Z" fill="#7988A2"/>
<path d="M95.7689 29.8063C95.9357 30.1604 96.1024 30.5145 96.2483 30.8894C96.0815 30.5145 95.9148 30.1604 95.7689 29.8063Z" fill="#7988A2"/>
<path d="M93.7056 25.6405C93.914 26.0362 94.1224 26.432 94.3309 26.8278C94.1224 26.432 93.914 26.0362 93.7056 25.6405Z" fill="#7988A2"/>
<path d="M99.8123 45.3656C99.7706 44.9073 99.7081 44.4699 99.6456 44.0117C99.5205 42.9077 99.3538 41.8038 99.1454 40.7415C99.062 40.2833 98.9786 39.8251 98.8744 39.3876C98.6035 38.0962 98.27 36.8257 97.8948 35.5759C97.8532 35.4093 97.8115 35.2427 97.7489 35.076C97.3113 33.6597 96.7902 32.2641 96.2275 30.9102C96.0816 30.5353 95.9149 30.1812 95.7481 29.8271C95.3104 28.8273 94.8311 27.8276 94.31 26.8486C94.1016 26.4528 93.8932 26.0571 93.6848 25.6613C93.1012 24.6199 92.4968 23.6201 91.8298 22.6203C91.6839 22.3912 91.538 22.1412 91.3713 21.9121C90.5585 20.7249 89.6831 19.5584 88.7869 18.4337C88.5576 18.1421 88.2867 17.8713 88.0574 17.5797C87.3488 16.7674 86.6402 15.955 85.8899 15.1844C85.5564 14.8303 85.2021 14.497 84.8478 14.1429C84.0974 13.4139 83.3263 12.7265 82.5343 12.0392C82.2008 11.7684 81.8882 11.4768 81.5547 11.206C80.4709 10.3312 79.3663 9.49804 78.1992 8.70654C77.824 8.45659 77.428 8.22748 77.0529 7.97753C76.24 7.4568 75.4063 6.93608 74.5518 6.45701C74.0308 6.1654 73.4889 5.8738 72.947 5.60302C72.1967 5.20727 71.4255 4.85318 70.6335 4.49908C70.0708 4.24914 69.5081 3.97836 68.9245 3.72841C68.8203 3.68675 68.7369 3.6451 68.6327 3.60344C68.6535 3.62427 68.6744 3.62427 68.6952 3.6451C76.0733 8.85234 81.9924 16.0175 85.6606 24.3908C87.8698 27.89 89.558 31.7226 90.4543 35.7217C90.6001 36.3883 90.1833 37.0548 89.5164 37.2214C89.4538 37.2423 89.4122 37.2423 89.3496 37.2423C89.4955 38.2004 89.5997 39.1585 89.6831 40.1375C90.2875 40.1583 90.8086 40.5541 90.9128 41.1581C91.2671 43.3868 91.2463 45.6363 90.8503 47.8859C90.746 48.4691 90.2458 48.8857 89.6623 48.9273C89.3913 51.9475 88.8494 54.8844 88.0574 57.738C87.724 55.5093 86.7861 53.8013 85.2438 53.1973C81.9716 51.9059 77.3655 55.8217 74.9061 61.9663C72.4468 68.1108 73.1346 74.1304 76.3859 75.4426C77.2196 75.7759 78.1575 75.7551 79.1162 75.4426C69.9666 87.0444 55.794 94.522 39.8499 94.522C33.3264 94.522 27.0529 93.2722 21.3422 90.9811C21.3214 90.9811 21.3005 90.9602 21.3005 90.9602C21.3631 91.0019 21.4464 91.0435 21.509 91.106C22.0508 91.4809 22.6344 91.835 23.1972 92.21C23.8849 92.6474 24.5727 93.064 25.2605 93.4597C25.8024 93.7721 26.3651 94.0846 26.9279 94.3762C27.7616 94.8136 28.5952 95.2093 29.4498 95.5843C29.9083 95.7926 30.3668 96.0217 30.8462 96.2091C32.1592 96.7507 33.4931 97.2506 34.8687 97.688C35.2438 97.813 35.619 97.8963 35.9941 98.0004C37.0571 98.3129 38.1409 98.5836 39.2246 98.8336C39.7249 98.9377 40.2459 99.0419 40.7461 99.1252C41.7882 99.3127 42.8512 99.4793 43.9141 99.6043C44.3935 99.6667 44.852 99.7292 45.3313 99.7709C46.8528 99.9167 48.3951 100 49.9583 100C60.3167 100 69.9457 96.8548 77.9282 91.4601C81.9299 88.7732 85.4939 85.503 88.5576 81.8163C95.6856 73.1723 99.979 62.0912 99.979 50.0104C100.042 48.4274 99.9582 46.8861 99.8123 45.3656Z" fill="#435D7B"/>
<path d="M29.283 66.382C26.6152 66.382 24.4268 68.5482 24.4268 71.2351C24.4268 73.9221 26.5944 76.0675 29.283 76.0675C31.9716 76.0675 34.1392 73.9221 34.1392 71.2351C34.1392 68.5482 31.9716 66.382 29.283 66.382Z" fill="#435D7B"/>
<path d="M33.5139 22.9535C30.4709 21.2039 26.115 23.0577 23.7807 27.0777C21.4464 31.1185 22.0299 35.805 25.052 37.5547C28.0949 39.3251 32.4509 37.4713 34.7852 33.4305C37.1195 29.3897 36.536 24.7032 33.5139 22.9535Z" fill="#435D7B"/>
<path d="M51.6464 57.0298C55.523 57.0298 58.6702 53.8846 58.6702 49.9896C58.6702 46.1154 55.523 42.9702 51.6464 42.9702C47.749 42.9702 44.6018 46.1154 44.6018 49.9896C44.6018 53.8846 47.749 57.0298 51.6464 57.0298Z" fill="#435D7B"/>
<path d="M65.7981 27.7442C68.6535 27.7442 70.9669 25.453 70.9669 22.5995C70.9669 19.7459 68.6326 17.4547 65.7981 17.4547C62.9428 17.4547 60.6501 19.7459 60.6501 22.5995C60.6501 25.453 62.9636 27.7442 65.7981 27.7442Z" fill="#435D7B"/>
<path d="M77.5947 37.9504C78.3242 37.9504 78.8869 37.3672 78.8869 36.659C78.8869 35.9508 78.3033 35.3676 77.5947 35.3676C76.8861 35.3676 76.3025 35.9717 76.3025 36.659C76.2816 37.3672 76.8652 37.9504 77.5947 37.9504Z" fill="#60718C"/>
<path d="M55.7941 79.1085C55.7941 80.3166 56.7945 81.3164 58.0033 81.3164C59.233 81.3164 60.2126 80.3166 60.2126 79.1085C60.2126 77.8796 59.233 76.9006 58.0033 76.9006C56.7945 76.9006 55.7941 77.8796 55.7941 79.1085Z" fill="#60718C"/>
<path d="M54.8978 82.7328C54.3976 82.7328 53.9807 83.1285 53.9807 83.6492C53.9807 84.1491 54.3976 84.5449 54.8978 84.5449C55.398 84.5449 55.794 84.1491 55.794 83.6492C55.794 83.1285 55.398 82.7328 54.8978 82.7328Z" fill="#60718C"/>
<path d="M51.8965 14.1012C53.5639 14.1012 54.9186 12.7473 54.9186 11.081C54.9186 9.43553 53.5639 8.08165 51.8965 8.08165C50.2292 8.08165 48.8745 9.43553 48.8745 11.081C48.8745 12.7473 50.2292 14.1012 51.8965 14.1012Z" fill="#60718C"/>
<path d="M51.5214 76.9006C50.6877 76.9006 50.0208 77.5672 50.0208 78.4003C50.0208 79.2543 50.6877 79.9208 51.5214 79.9208C52.3759 79.9208 53.0429 79.2543 53.0429 78.4003C53.0429 77.588 52.3759 76.9006 51.5214 76.9006Z" fill="#60718C"/>
<path d="M50.0208 21.2039C51.042 21.2039 51.8965 20.3499 51.8965 19.3293C51.8965 18.2879 51.042 17.4547 50.0208 17.4547C48.9995 17.4547 48.145 18.2879 48.145 19.3293C48.145 20.3499 48.9995 21.2039 50.0208 21.2039Z" fill="#60718C"/>
<path d="M45.7898 14.6219C46.4568 14.6219 46.9987 14.1012 46.9987 13.4139C46.9987 12.7682 46.4776 12.2058 45.7898 12.2058C45.1437 12.2058 44.581 12.7473 44.581 13.4139C44.6018 14.1012 45.1437 14.6219 45.7898 14.6219Z" fill="#60718C"/>
<path d="M26.8654 51.3435C28.1993 51.3435 29.283 50.2604 29.283 48.9273C29.283 47.5942 28.1784 46.5111 26.8654 46.5111C25.5106 46.5111 24.4477 47.6151 24.4477 48.9273C24.4477 50.2604 25.5106 51.3435 26.8654 51.3435Z" fill="#60718C"/>
<path d="M25.6565 56.6132C26.3026 56.6132 26.8653 56.0925 26.8653 55.4051C26.8653 54.7386 26.3234 54.1762 25.6565 54.1762C24.9896 54.1762 24.4268 54.7178 24.4268 55.4051C24.4477 56.0925 24.9896 56.6132 25.6565 56.6132Z" fill="#60718C"/>
<path d="M22.0925 49.9896C21.4673 49.9896 20.967 50.5103 20.967 51.1352C20.967 51.76 21.4673 52.2599 22.0925 52.2599C22.7178 52.2599 23.218 51.76 23.218 51.1352C23.218 50.5103 22.7178 49.9896 22.0925 49.9896Z" fill="#60718C"/>
<path d="M9.3789 36.5341C9.60816 35.8884 9.29553 35.1594 8.62858 34.9302C7.98248 34.6803 7.25301 35.0136 7.02375 35.6801C3.33472 45.678 4.04335 57.2797 8.92037 66.7569C9.14963 67.1943 9.58731 67.4442 10.025 67.4442C10.2126 67.4442 10.421 67.4026 10.5877 67.2984C11.1921 66.986 11.4422 66.2362 11.1296 65.6113C6.58607 56.7382 5.93997 45.8654 9.3789 36.5341Z" fill="#A8B3C1"/>
<path d="M19.7999 78.0879C17.5907 76.7965 15.7983 74.7969 14.7562 72.4849C14.4644 71.86 13.7349 71.5684 13.1096 71.86C12.4844 72.1516 12.1926 72.8806 12.4844 73.5055C13.7349 76.2966 15.9025 78.6919 18.5494 80.2541C18.7578 80.3791 18.9662 80.4207 19.1747 80.4207C19.6123 80.4207 20.0292 80.1916 20.2584 79.7958C20.5919 79.1918 20.3835 78.4211 19.7999 78.0879Z" fill="#A8B3C1"/>
<path d="M73.5514 12.4557C72.9678 12.1016 72.1966 12.2891 71.8423 12.8932C71.488 13.4972 71.6756 14.247 72.28 14.6011C80.1374 19.2668 86.0357 27.3693 88.0574 36.2841C88.1824 36.8673 88.7035 37.2631 89.2662 37.2631C89.3079 37.2631 89.3287 37.2631 89.3704 37.2422C89.4329 37.2422 89.4746 37.2422 89.5372 37.2214C90.2041 37.0756 90.6418 36.4091 90.475 35.7217C89.558 31.7226 87.8906 27.89 85.6814 24.3908C82.6176 19.5376 78.4492 15.3718 73.5514 12.4557Z" fill="#A8B3C1"/>
<path d="M88.4534 41.533C88.766 43.4909 88.7452 45.4697 88.4117 47.4484C88.2866 48.1358 88.766 48.7815 89.4329 48.8856C89.4955 48.9065 89.5788 48.9065 89.6414 48.9065C89.6622 48.9065 89.683 48.9065 89.683 48.9065C90.2666 48.8856 90.7668 48.469 90.871 47.865C91.2462 45.6155 91.267 43.3659 90.9336 41.1372C90.8294 40.5332 90.3083 40.1166 89.7039 40.1166C89.6414 40.1166 89.5788 40.0958 89.4955 40.0958C88.8077 40.2208 88.3492 40.8456 88.4534 41.533Z" fill="#A8B3C1"/>
</svg>
