<svg width="679" height="947" viewBox="0 0 679 947" fill="none" xmlns="http://www.w3.org/2000/svg">
<rect x="307" y="366" width="100" height="554" fill="#67584D" class="stump"/>
<path d="M341 862L433 892L480 947L341 918V862Z" fill="#67584D" class="stump"/>
<path d="M319.935 889.137L401.435 870.137L380 926.137L314 935.5L235 947L319.935 889.137Z" fill="#67584D" class="stump"/>
<path d="M525.5 318.5L499 388.5L400.5 518.5H329L525.5 318.5Z" fill="#67584D" class="stump"/>
<path d="M137 198.5V174L305 363L332.5 497L137 198.5Z" fill="#67584D" class="stump"/>
<path d="M361.5 363L475 253.5L576.5 198.5L393.5 391L361.5 363Z" fill="#67584D" class="stump"/>
<path d="M297 277.5L349 369.5L368.5 464L312 400L297 277.5Z" fill="#716452" class="stump_outline"/>
<path d="M669 329C669 389.199 618.632 438 556.5 438C494.368 438 444 389.199 444 329C444 268.801 494.368 220 556.5 220C618.632 220 669 268.801 669 329Z" fill="#6B9A47" class="leaf" id="leaf1"/>
<ellipse cx="153" cy="345" rx="91" ry="93" fill="#547837" class="leaf" id="leaf2"/>
<path d="M565 117.5C565 160.302 524.034 195 473.5 195C422.966 195 382 160.302 382 117.5C382 74.6979 422.966 40 473.5 40C524.034 40 565 74.6979 565 117.5Z" fill="#74A350" class="leaf" id="leaf3"/>
<path d="M398 77.5C398 120.302 357.034 155 306.5 155C255.966 155 215 120.302 215 77.5C215 34.6979 255.966 0 306.5 0C357.034 0 398 34.6979 398 77.5Z" fill="#93BF70" class="leaf" id="leaf4"/>
<path d="M192 251.5C192 294.302 151.034 329 100.5 329C49.9659 329 9 294.302 9 251.5C9 208.698 49.9659 174 100.5 174C151.034 174 192 208.698 192 251.5Z" fill="#93BF70" class="leaf" id="leaf5"/>
<path d="M592 267.5C592 310.302 551.034 345 500.5 345C449.966 345 409 310.302 409 267.5C409 224.698 449.966 190 500.5 190C551.034 190 592 224.698 592 267.5Z" fill="#93BF70" class="leaf" id="leaf6"/>
<path d="M528 243C528 317.006 468.678 377 395.5 377C322.322 377 263 317.006 263 243C263 168.994 322.322 109 395.5 109C468.678 109 528 168.994 528 243Z" fill="#50792F" class="leaf" id="leaf7"/>
<path d="M378 194.5C378 241.72 337.258 280 287 280C236.742 280 196 241.72 196 194.5C196 147.28 236.742 109 287 109C337.258 109 378 147.28 378 194.5Z" fill="#6B9A47" class="leaf" id="leaf8"/>
<ellipse cx="576.5" cy="179" rx="102.5" ry="101" fill="#86AA6A" class="leaf" id="leaf9"/>
<ellipse cx="153.376" cy="181.599" rx="132.5" ry="134" transform="rotate(-9.80066 153.376 181.599)" fill="#5C7746" class="leaf" id="leaf10"/>
<path d="M336.692 501.5L412.192 453L336.692 883H322.293L336.692 501.5Z" fill="#716452" class="stump_outline"/>
<path d="M363 883L380 845L427 915L380 903.5L280 941L363 883Z" fill="#716452" class="stump_outline"/>
</svg>
